<?xml version="1.0" standalone="no"?>
<!DOCTYPE svg PUBLIC "-//W3C//DTD SVG 20010904//EN"
 "http://www.w3.org/TR/2001/REC-SVG-20010904/DTD/svg10.dtd">
<svg version="1.0" xmlns="http://www.w3.org/2000/svg"
 width="96.000000pt" height="96.000000pt" viewBox="0 0 96.000000 96.000000"
 preserveAspectRatio="xMidYMid meet">
<metadata>
Created by potrace 1.14, written by Peter Selinger 2001-2017
</metadata>
<g transform="translate(0.000000,96.000000) scale(0.100000,-0.100000)"
fill="#000000" stroke="none">
<path d="M702 791 c-12 -11 -39 -22 -61 -26 -52 -9 -105 -55 -135 -120 -33
-68 -43 -74 -51 -31 -10 49 2 92 37 132 26 29 28 35 14 40 -28 11 -93 -3 -126
-26 -38 -27 -71 -78 -93 -145 -10 -27 -38 -80 -63 -118 -68 -101 -86 -187 -53
-248 18 -35 31 -21 23 27 -13 91 -11 99 55 203 33 51 63 106 66 123 14 60 56
122 100 142 45 22 46 21 23 -21 -16 -31 -18 -51 -14 -104 l5 -65 -34 -13 c-39
-14 -59 -42 -50 -71 18 -58 115 -12 115 55 0 8 9 19 19 25 11 5 31 34 44 62
40 85 78 117 156 132 39 7 38 5 -35 -67 -36 -36 -44 -51 -44 -81 0 -72 81
-104 133 -52 26 26 39 25 30 -2 -10 -28 -46 -63 -85 -83 -94 -48 -108 -164
-17 -145 16 3 28 2 26 -2 -2 -4 -16 -33 -31 -64 -31 -67 -84 -123 -134 -139
-77 -26 -200 11 -235 71 -38 64 -7 151 60 169 21 5 64 16 97 24 l59 15 -6 -53
c-9 -90 -59 -155 -107 -140 -34 11 -42 39 -19 69 18 23 19 27 4 32 -19 8 -47
-27 -51 -63 -3 -29 41 -73 74 -73 76 0 123 72 130 198 4 70 2 82 -11 82 -9 0
-19 -5 -22 -11 -9 -14 -44 -26 -96 -34 -106 -15 -164 -74 -157 -161 8 -97 77
-153 200 -162 80 -6 138 18 189 76 35 39 83 138 94 190 7 36 -4 41 -45 17 -34
-19 -50 -18 -50 3 0 22 32 54 91 93 55 35 82 83 73 128 -7 36 -35 64 -42 43
-9 -29 -55 -72 -76 -72 -60 0 -61 58 -2 114 84 78 110 194 28 127z m-278 -286
c-4 -9 -15 -20 -25 -25 -27 -15 -33 6 -7 24 28 20 39 20 32 1z"/>
</g>
</svg>
